<svg width="161" height="153" viewBox="0 0 161 153" fill="none" xmlns="http://www.w3.org/2000/svg">
<path d="M78.6782 153H0V75.763C0 65.3706 9.01183 56.9457 20.1282 56.9457C31.2446 56.9457 40.2564 65.3706 40.2564 75.763V115.365H78.6782C101.602 115.365 120.252 97.9303 120.252 76.4997C120.252 55.0695 101.602 37.6345 78.6782 37.6345C67.5615 37.6345 58.5499 29.2099 58.5499 18.8173C58.5499 8.42464 67.5615 0 78.6782 0C100.536 0 121.086 7.95737 136.541 22.406C151.997 36.8549 160.509 56.0656 160.509 76.4997C160.509 96.9339 151.997 116.145 136.541 130.594C121.086 145.043 100.536 153 78.6782 153Z" fill="white"/>
</svg>
